<svg xmlns="http://www.w3.org/2000/svg" viewBox="0 0 128 128" role="img" aria-label="つくって考えた">
  <defs>
    <filter id="shadow" x="-20%" y="-20%" width="140%" height="140%">
      <feDropShadow dx="0" dy="3" stdDeviation="4" flood-color="#202426" flood-opacity=".16"/>
    </filter>
  </defs>
  <rect x="6" y="6" width="116" height="116" rx="28" fill="#fffdf7" filter="url(#shadow)"/>
  <path d="M20 76l9-5 7 9 8-4 4 10 8-6" fill="none" stroke="#202426" stroke-width="5" stroke-linecap="round" stroke-linejoin="round"/>
  <circle cx="61" cy="75" r="2.5" fill="#202426"/>
  <circle cx="68" cy="70" r="2.5" fill="#202426"/>
  <circle cx="75" cy="64" r="2.5" fill="#202426"/>
  <path d="M79 59c6-4 4-13 11-15" fill="none" stroke="#202426" stroke-width="5" stroke-linecap="round"/>
  <rect x="77" y="76" width="34" height="13" rx="3" fill="#202426"/>
  <rect x="77" y="58" width="15" height="14" rx="3" fill="#d8cdbb"/>
  <rect x="96" y="58" width="15" height="14" rx="3" fill="#202426"/>
  <rect x="77" y="42" width="34" height="12" rx="3" fill="#e6402c"/>
  <path d="M77 38h17V22z" fill="#202426"/>
  <rect x="97" y="27" width="14" height="11" rx="3" fill="#d8cdbb"/>
  <path d="M104 16l2.2 5.8 5.8 2.2-5.8 2.2-2.2 5.8-2.2-5.8-5.8-2.2 5.8-2.2z" fill="#f3b62b"/>
  <path d="M104 9v5M113 13l-3 4M119 21l-5 1" stroke="#f3b62b" stroke-width="3" stroke-linecap="round"/>
</svg>
